<svg width="186" height="32" viewBox="0 0 186 32" fill="none" xmlns="http://www.w3.org/2000/svg">
<rect y="0.825195" width="115" height="4.53252" rx="2.26626" fill="#AEB5BD"/>
<rect x="122" y="0.825195" width="22" height="4.53252" rx="2.26626" fill="#AEB5BD"/>
<rect x="14" y="14.4227" width="22" height="4.53252" rx="2.26626" fill="#AEB5BD"/>
<rect x="15" y="27.1138" width="22" height="4.53252" rx="2.26626" fill="#AEB5BD"/>
<rect x="44" y="27.1138" width="21" height="4.53252" rx="2.26626" fill="#AEB5BD"/>
<rect x="41" y="14.4227" width="61" height="4.53252" rx="2.26626" fill="#AEB5BD"/>
<rect x="72" y="27.1138" width="114" height="4.53252" rx="2.26626" fill="#AEB5BD"/>
<rect x="108" y="14.4227" width="46" height="4.53252" rx="2.26626" fill="#AEB5BD"/>
<rect x="150" y="0.825195" width="20" height="4.53252" rx="2.26626" fill="#AEB5BD"/>
<rect x="177" y="0.825195" width="9" height="4.53252" rx="2.26626" fill="#AEB5BD"/>
<rect x="160" y="14.4227" width="9" height="4.53252" rx="2.26626" fill="#AEB5BD"/>
<rect y="27.1138" width="9" height="4.53252" rx="2.26626" fill="#AEB5BD"/>
</svg>
